# xmcd
# 
# Track frame offsets:
#     150
#     18422
#     40957
#     58370
#     77652
#     94235
#     109357
#     123375
#     142752
#     158542
# 
# Disc length: 2355
# 
# Revision: 4
# Processed by: cddbd v1.5.2PL0 Copyright (c) Steve Scherf et al.
# Submitted via: fre:ac v1.0.31
# 
DISCID=7f09310a
DTITLE=Koko Taylor - From The Heart Of A Woman
DYEAR=1989
DGENRE=Blues
TTITLE0=Something Strange Is Going On
TTITLE1=I'd Rather Go Blind
TTITLE2=Keep Your Hands Off Him
TTITLE3=Thanks, But No Thanks
TTITLE4=If You Got A Heartache
TTITLE5=Never Trust A Man
TTITLE6=Sure Had A Wonderful Time Last Night
TTITLE7=Blow Top Blues
TTITLE8=If Walls Could Talk
TTITLE9=Took A Long Time
EXTD=
EXTT0=
EXTT1=
EXTT2=
EXTT3=
EXTT4=
EXTT5=
EXTT6=
EXTT7=
EXTT8=
EXTT9=
PLAYORDER=
